<?xml version="1.0" encoding="UTF-8" standalone="no"?>
<svg
   xmlns:dc="http://purl.org/dc/elements/1.1/"
   xmlns:cc="http://creativecommons.org/ns#"
   xmlns:rdf="http://www.w3.org/1999/02/22-rdf-syntax-ns#"
   xmlns:svg="http://www.w3.org/2000/svg"
   xmlns="http://www.w3.org/2000/svg"
   xmlns:xlink="http://www.w3.org/1999/xlink"
   xmlns:sodipodi="http://sodipodi.sourceforge.net/DTD/sodipodi-0.dtd"
   xmlns:inkscape="http://www.inkscape.org/namespaces/inkscape"
   style="shape-rendering:geometricPrecision;text-rendering:geometricPrecision;image-rendering:optimizeQuality"
   fill-rule="evenodd"
   xml:space="preserve"
   height="90.706mm"
   width="55.231mm"
   version="1.0"
   clip-rule="evenodd"
   viewBox="0 0 1877 3083"
   id="svg40"
   sodipodi:docname="balloon.svg"
   inkscape:version="0.92.3 (2405546, 2018-03-11)"><metadata
   id="metadata44"><rdf:RDF><cc:Work
       rdf:about=""><dc:format>image/svg+xml</dc:format><dc:type
         rdf:resource="http://purl.org/dc/dcmitype/StillImage" /><dc:title></dc:title></cc:Work></rdf:RDF></metadata><sodipodi:namedview
   pagecolor="#ffffff"
   bordercolor="#666666"
   borderopacity="1"
   objecttolerance="10"
   gridtolerance="10"
   guidetolerance="10"
   inkscape:pageopacity="0"
   inkscape:pageshadow="2"
   inkscape:window-width="2560"
   inkscape:window-height="1367"
   id="namedview42"
   showgrid="false"
   inkscape:zoom="1.3767924"
   inkscape:cx="-49.773142"
   inkscape:cy="191.30623"
   inkscape:window-x="0"
   inkscape:window-y="0"
   inkscape:window-maximized="1"
   inkscape:current-layer="svg40" />
 <defs
   id="defs22">
  <style
   type="text/css"
   id="style2">
   <![CDATA[
    .str0 {stroke:#434242;stroke-width:11.5113}
    .fil4 {fill:none}
    .fil1 {fill:#FEFEFE}
    .fil2 {fill:#83281E}
    .fil5 {fill:#434242;fill-rule:nonzero}
    .fil3 {fill:url(#id2)}
    .fil0 {fill:url(#id3)}
   ]]>
  </style>
    <mask
   id="id0">
  <linearGradient
   id="id1"
   y2="1227.1"
   gradientUnits="userSpaceOnUse"
   x2="713.17"
   y1="1138.4"
   x1="25.004">
   <stop
   stop-color="#fff"
   offset="0"
   id="stop4" />
   <stop
   stop-opacity="0"
   stop-color="#fff"
   offset="1"
   id="stop6" />
  </linearGradient>
     <rect
   height="2226"
   width="634"
   y="70"
   x="52"
   fill="url(#id1)"
   id="rect9" />
    </mask>
  <linearGradient
   id="id2"
   y2="2861.1"
   gradientUnits="userSpaceOnUse"
   x2="915.53"
   y1="2816.2"
   x1="915.53">
   <stop
   stop-color="#E31E24"
   offset="0"
   id="stop12" />
   <stop
   stop-color="#B92B22"
   offset="1"
   id="stop14" />
  </linearGradient>
  <radialGradient
   id="id3"
   cy="633.60242"
   cx="746.51685"
   r="452.57318"
   gradientTransform="scale(0.82962594,1.2053625)"
   fx="746.51685"
   fy="633.60242"
   gradientUnits="userSpaceOnUse"
   xlink:href="#id1">
   <stop
   stop-color="#EE786E"
   offset="0"
   id="stop17" />
   <stop
   stop-color="#E31E24"
   offset="1"
   id="stop19" />
  </radialGradient>
 
  
 
   
   
   
   
   
    
   
  </defs>
 <path
   class="fil0"
   d="m 944,0 c 306,0 589,150 764,404 171,246 213,595 123,976 -101,381 -284,721 -453,971 -161,239 -313,387 -478,376 C 735,2716 594,2553 449,2311 298,2059 128,1725 39,1352 -43,979 4,637 177,397 354,148 637,0 944,0 Z"
   id="path24"
   style="fill:url(#id3);fill-opacity:1.0"
   inkscape:connector-curvature="0" /><path
   class="fil2"
   d="m 716,2891 c -17,22 -7,38 24,47 30,9 81,10 121,0 41,-10 72,-32 108,-39 37,-8 79,-1 95,-12 16,-10 4,-39 -41,-55 -45,-15 -124,-19 -186,-6 -61,13 -104,42 -121,65 z"
   id="path28"
   inkscape:connector-curvature="0"
   style="fill:#83281e" /><path
   class="fil3"
   d="m 918,2616 c -10,-11 -13,30 -41,72 -29,43 -82,86 -119,128 -37,41 -58,82 -52,98 5,16 35,7 71,-7 35,-14 76,-34 110,-42 35,-9 64,-5 97,5 34,10 71,26 84,14 13,-12 0,-53 -21,-79 -22,-26 -53,-37 -77,-75 -24,-38 -41,-102 -52,-114 z"
   id="path30"
   style="fill:url(#id2)"
   inkscape:connector-curvature="0" /><path
   class="fil4 str0"
   d="m 846,2723 c 42,1 84,1 126,2"
   id="path32"
   inkscape:connector-curvature="0"
   style="fill:none;stroke:#434242;stroke-width:11.51130009" /><path
   class="fil5"
   d="m 1201,3075 c 25,7 59,7 85,8 v -41 c -22,0 -54,-1 -75,-6 -2,-1 -3,-1 -5,-2 -1,0 -3,-1 -2,-1 0,1 1,2 1,3 1,1 1,2 1,3 v -1 c 1,-5 3,-9 4,-13 1,-4 1,-8 1,-12 -1,-5 -2,-8 -4,-13 -3,-5 -5,-8 -9,-12 -5,-4 -9,-6 -14,-8 -12,-6 -25,-9 -38,-12 -5,0 -10,-2 -15,-3 -1,-1 0,-1 0,0 1,1 1,2 2,3 v 2 -1 c 0,-1 5,-10 5,-10 3,-6 5,-11 7,-16 2,-8 3,-14 1,-22 -2,-10 -5,-16 -12,-23 -8,-9 -16,-14 -26,-19 -8,-4 -14,-8 -19,-15 -5,-5 -7,-10 -10,-16 -4,-15 -4,-29 -5,-44 -2,-20 -5,-34 -17,-50 -8,-9 -15,-14 -26,-20 -14,-7 -26,-10 -41,-13 -8,-1 -53,-3 -58,5 1,1 45,5 54,8 13,4 25,8 36,16 8,4 13,9 19,17 8,12 9,23 9,38 0,18 -1,32 3,50 3,11 7,18 13,27 8,10 16,17 27,23 7,4 13,8 18,14 1,2 3,4 3,7 1,3 0,4 -1,7 -1,3 -3,6 -5,9 -2,4 -4,8 -7,13 -1,3 -2,5 -3,8 0,4 -1,8 0,12 1,5 3,8 6,12 2,4 5,6 9,8 8,5 16,7 25,9 10,2 21,5 29,10 2,1 4,2 5,3 v 0 -1 c -1,-1 -1,1 -1,1 -1,3 -2,7 -3,11 -1,3 -2,6 -2,10 0,5 0,9 2,13 3,6 5,9 10,13 4,4 7,6 12,8 2,1 8,3 11,3 z"
   id="path34"
   inkscape:connector-curvature="0"
   style="fill:#434242;fill-rule:nonzero" /><path
   class="fil4"
   d="m 1286,3062 c -197,-2 -19,-51 -144,-76 -74,-15 39,-49 -41,-94 -83,-46 17,-132 -113,-165 -19,-5 -37,-3 -56,-1"
   id="path36"
   inkscape:connector-curvature="0"
   style="fill:none" />
</svg>